<?xml version="1.0" encoding="UTF-8" standalone="no"?>
<svg
   height="48px"
   viewBox="0 -960 960 960"
   width="48px"
   fill="#e8eaed"
   version="1.1"
   id="svg4"
   sodipodi:docname="ExpandCircleUp.svg"
   inkscape:version="1.2.2 (b0a8486541, 2022-12-01)"
   xmlns:inkscape="http://www.inkscape.org/namespaces/inkscape"
   xmlns:sodipodi="http://sodipodi.sourceforge.net/DTD/sodipodi-0.dtd"
   xmlns="http://www.w3.org/2000/svg"
   xmlns:svg="http://www.w3.org/2000/svg">
  <defs
     id="defs8" />
  <sodipodi:namedview
     id="namedview6"
     pagecolor="#ffffff"
     bordercolor="#000000"
     borderopacity="0.25"
     inkscape:showpageshadow="2"
     inkscape:pageopacity="0.0"
     inkscape:pagecheckerboard="0"
     inkscape:deskcolor="#d1d1d1"
     showgrid="false"
     inkscape:zoom="18.083333"
     inkscape:cx="13.161291"
     inkscape:cy="24.02765"
     inkscape:window-width="1920"
     inkscape:window-height="1011"
     inkscape:window-x="0"
     inkscape:window-y="1112"
     inkscape:window-maximized="1"
     inkscape:current-layer="svg4" />
  <path
     style="display:inline;fill:#2c3144;fill-opacity:1;stroke-width:0.0552995"
     d="m 22.396314,40.911469 c -0.66848,-0.05817 -1.974372,-0.274315 -2.626728,-0.43476 -2.310971,-0.56838 -4.332554,-1.561134 -6.248848,-3.06867 -0.746806,-0.587507 -2.341269,-2.18197 -2.928776,-2.928776 C 8.7541627,32.143157 7.6614413,29.612707 7.2129503,26.654378 7.0632141,25.66669 7.0047739,23.372758 7.1027175,22.327446 7.3948576,19.209557 8.453787,16.406734 10.245626,14.008652 12.746833,10.661198 16.086327,8.4038132 19.880185,7.4960173 21.33845,7.1470829 21.986006,7.0820002 24,7.0819541 c 1.979319,-4.53e-5 2.477087,0.04798 3.982261,0.3842118 2.71094,0.6055807 5.320999,2.012082 7.496996,4.0399601 3.236346,3.01605 5.021535,6.581499 5.418136,10.82132 0.09849,1.052882 0.03937,3.34195 -0.111754,4.326932 -0.540301,3.52157 -2.016922,6.491769 -4.527955,9.107908 -2.870065,2.990199 -6.425875,4.726294 -10.507782,5.130338 -0.523237,0.05179 -2.826255,0.06473 -3.353588,0.01884 z m -1.631335,-15.805479 3.23467,-3.235025 3.247526,3.247176 3.247525,3.247176 1.066014,-1.049018 c 0.586308,-0.57696 1.075332,-1.070747 1.086719,-1.097306 0.01139,-0.02656 -1.929567,-1.998679 -4.313232,-4.382489 l -4.333937,-4.334201 -4.327321,4.327058 c -2.380026,2.379881 -4.327321,4.342091 -4.327321,4.360466 0,0.03944 2.116117,2.1492 2.15686,2.150381 0.0153,4.42e-4 1.483428,-1.454955 3.262497,-3.234218 z"
     id="path1711"
     transform="matrix(20,0,0,20,0,-960)"
     inkscape:label="path1711" />
  <path
     style="fill:#ffffff;stroke-width:0.0552995"
     d="m 27.252097,25.095532 -3.245009,-3.245008 -3.24297,3.219252 -3.24297,3.219253 -0.313569,-0.27265 c -0.435578,-0.378737 -1.779007,-1.753564 -1.779007,-1.820585 0,-0.03026 1.92883,-1.99245 4.286289,-4.360427 l 4.28629,-4.305413 4.284791,4.313364 c 2.356635,2.372351 4.284947,4.338495 4.285139,4.36921 1.66e-4,0.03072 -0.466374,0.522083 -1.036814,1.091929 l -1.037161,1.036085 z"
     id="path373"
     transform="matrix(20,0,0,20,0,-960)" />
</svg>
